<svg xmlns="http://www.w3.org/2000/svg" width="256" height="128" viewBox="0 0 256 128">
  <defs>
    <g id="cat-idle-a">
      <ellipse cx="15" cy="24" rx="10" ry="4" fill="#f7d3de"/>
      <ellipse cx="18" cy="18" rx="8" ry="5" fill="#ffe8f0" stroke="#4a3a47" stroke-width="1.2"/>
      <ellipse cx="9" cy="15" rx="5" ry="5" fill="#ffe8f0" stroke="#4a3a47" stroke-width="1.2"/>
      <path d="M5 11 7 6l3 4" fill="#ffe8f0" stroke="#4a3a47" stroke-width="1.2" stroke-linejoin="round"/>
      <path d="m10 10 3-4 2 5" fill="#ffe8f0" stroke="#4a3a47" stroke-width="1.2" stroke-linejoin="round"/>
      <path d="M23 17c4-2 6-5 6-8 0-2-1-4-3-4-3 0-4 3-3 6" fill="none" stroke="#4a3a47" stroke-width="1.2" stroke-linecap="round"/>
      <circle cx="7.8" cy="14.5" r="0.9" fill="#332732"/>
      <circle cx="11.1" cy="14.5" r="0.9" fill="#332732"/>
      <path d="M8.7 16.6c.8.7 1.7.7 2.5 0" fill="none" stroke="#d988a4" stroke-width="1" stroke-linecap="round"/>
      <path d="M7 22h5m2 0h5" stroke="#4a3a47" stroke-width="1.2" stroke-linecap="round"/>
    </g>
    <g id="cat-idle-b">
      <use href="#cat-idle-a"/>
      <path d="M23 17c5-1 7-4 7-7 0-2-1-4-3-4-3 0-4 3-3 6" fill="none" stroke="#4a3a47" stroke-width="1.2" stroke-linecap="round"/>
      <path d="M14 22h5" stroke="#4a3a47" stroke-width="1.2" stroke-linecap="round"/>
    </g>
    <g id="cat-alert">
      <ellipse cx="15" cy="23" rx="9" ry="4" fill="#f7d3de"/>
      <ellipse cx="18" cy="17" rx="8" ry="6" fill="#ffe8f0" stroke="#4a3a47" stroke-width="1.2"/>
      <ellipse cx="9.5" cy="14" rx="5.5" ry="5.5" fill="#ffe8f0" stroke="#4a3a47" stroke-width="1.2"/>
      <path d="M5 10 7 5l3 4" fill="#ffe8f0" stroke="#4a3a47" stroke-width="1.2" stroke-linejoin="round"/>
      <path d="m10.5 10 3-4.5 2 5.2" fill="#ffe8f0" stroke="#4a3a47" stroke-width="1.2" stroke-linejoin="round"/>
      <path d="M24 17c5-1 7-4 7-8 0-2-1-4-3-4-3 0-4 3-3 6" fill="none" stroke="#4a3a47" stroke-width="1.2" stroke-linecap="round"/>
      <circle cx="7.8" cy="13.8" r="1.1" fill="#332732"/>
      <circle cx="11.5" cy="13.8" r="1.1" fill="#332732"/>
      <path d="M8.8 16.3c1 .8 1.9.8 2.9 0" fill="none" stroke="#d988a4" stroke-width="1" stroke-linecap="round"/>
      <path d="M7 21.5h5m2 0h5" stroke="#4a3a47" stroke-width="1.2" stroke-linecap="round"/>
    </g>
    <g id="cat-scratch-a">
      <use href="#cat-idle-a"/>
      <path d="M10 17c2-4 4-7 6-9" fill="none" stroke="#4a3a47" stroke-width="1.3" stroke-linecap="round"/>
    </g>
    <g id="cat-scratch-b">
      <use href="#cat-idle-a"/>
      <path d="M11 18c2-5 4-8 6-11" fill="none" stroke="#4a3a47" stroke-width="1.3" stroke-linecap="round"/>
    </g>
    <g id="cat-scratch-c">
      <use href="#cat-idle-a"/>
      <path d="M12 18c2-5 5-8 7-11" fill="none" stroke="#4a3a47" stroke-width="1.3" stroke-linecap="round"/>
    </g>
    <g id="cat-tired">
      <use href="#cat-idle-a"/>
      <path d="M7 14h1.8m1.6 0h1.8" stroke="#332732" stroke-width="1.2" stroke-linecap="round"/>
    </g>
    <g id="cat-sleep-a">
      <use href="#cat-tired"/>
      <path d="m22 8 2-2h-2l2-2" fill="none" stroke="#8d7ce0" stroke-width="1.2" stroke-linecap="round" stroke-linejoin="round"/>
    </g>
    <g id="cat-sleep-b">
      <use href="#cat-tired"/>
      <path d="m23 6 2-2h-2l2-2m0 6 1.5-1.5h-1.5L27 5" fill="none" stroke="#8d7ce0" stroke-width="1.2" stroke-linecap="round" stroke-linejoin="round"/>
    </g>
  </defs>

  <g transform="translate(64 0)"><use href="#cat-sleep-a"/></g>
  <g transform="translate(64 32)"><use href="#cat-sleep-b"/></g>
  <g transform="translate(160 0)"><use href="#cat-scratch-a"/></g>
  <g transform="translate(192 0)"><use href="#cat-scratch-b"/></g>
  <g transform="translate(224 0)"><use href="#cat-scratch-c"/></g>
  <g transform="translate(96 64)"><use href="#cat-tired"/></g>
  <g transform="translate(96 96)"><use href="#cat-idle-a"/></g>
  <g transform="translate(224 96)"><use href="#cat-alert"/></g>
</svg>
